<?xml version="1.0" encoding="utf-8"?>
<!-- Generator: Adobe Illustrator 18.1.1, SVG Export Plug-In . SVG Version: 6.00 Build 0)  -->
<svg version="1.1" id="icon-tickets" xmlns="http://www.w3.org/2000/svg" xmlns:xlink="http://www.w3.org/1999/xlink" x="0px"
	 y="0px" viewBox="0 0 1024 1024" enable-background="new 0 0 1024 1024" xml:space="preserve">
<path d="M943.1,706.6l-57.3-142.3c-2-4.1-7.2-6.1-11.3-5.1c-19.5,8.2-42-2-49.2-21.5c-4.1-9.2-4.1-19.5,0-28.7
	c4.1-9.2,11.3-16.4,20.5-20.5c2-1,4.1-2,5.1-4.1s1-4.1,0-6.1l-57.3-142.3c-2-4.1-7.2-6.1-11.3-5.1l-157.7,63.5l92.2-214
	c2-4.1,0-9.2-4.1-11.3l-129-55.3c-4.1-2-9.2,0-11.3,4.1c-7.2,17.4-27.6,25.6-44,18.4c-8.2-3.1-14.3-10.2-18.4-18.4
	c-3.1-8.2-3.1-17.4,0-25.6c1-2,1-4.1,0-6.1c-1-2-2-4.1-4.1-5.1l-129-54.3c-4.1-2-9.2,0-11.3,4.1L126,596L86,611.3
	c-2,2-4.1,3.1-4.1,5.1c-1,2-1,4.1,0,6.1l57.3,142.3c2,4.1,7.2,6.1,11.3,5.1c19.5-7.2,42,2,49.2,20.5c4.1,9.2,4.1,19.5,0,28.7
	c-4.1,9.2-11.3,16.4-20.5,20.5c-2,1-4.1,2-5.1,4.1c-1,2-1,4.1,0,6.1l55.3,143.4c1,2,2,4.1,4.1,5.1c1,0,2,1,3.1,1c1,0,2,0,3.1-1
	L937,718.8C942.1,716.8,944.1,711.7,943.1,706.6z M377.9,45.1l113.7,48.1c-2,10.2-2,20.5,2,30.7c5.1,12.3,14.3,22.5,27.6,27.6
	c23.6,10.2,49.2,1,62.5-19.5l113.7,48.1l-95.2,223.2L554,422.9l50.2-113.7l25.6-59.4c1-2,1-4.1,0-6.1s-2-4.1-4.1-5.1L389.1,138.2
	c-2-1-4.1-1-6.1,0c-2,1-4.1,2-5.1,4.1l-182.3,426l-48.1,19.5L377.9,45.1L377.9,45.1z M363.5,216.1l8.2,3.1c1,0,2,1,3.1,1
	c3.1,0,6.1-2,8.2-5.1c2-4.1,0-9.2-4.1-11.3l-8.2-3.1l18.4-44l221.2,94.2l-18.4,44l-8.2-4.1c-4.1-2-9.2,0-11.3,4.1
	c-2,4.1,0,9.2,4.1,11.3l8.2,3.1l-52.2,122.9l-314.4,127L363.5,216.1L363.5,216.1z M242.7,978.9l-51.2-127
	c10.2-6.1,17.4-14.3,22.5-25.6c6.1-13.3,6.1-28.7,0-42c-8.2-20.5-28.7-34.8-51.2-34.8c-4.1,0-8.2,0-12.3,1l-50.2-126l681-273.4
	l51.2,127c-10.2,6.1-17.4,14.3-22.5,25.6c-6.1,13.3-6.1,28.7,0,42c8.2,20.5,28.7,34.8,51.2,34.8c4.1,0,8.2,0,12.3-1l51.2,127
	L242.7,978.9L242.7,978.9z"/>
<path d="M716.8,431.1c-1-2-2-4.1-4.1-5.1c-2-1-4.1-1-6.1,0L206.8,626.7c-4.1,2-6.1,7.2-5.1,11.3l105.5,261.1c1,2,2,4.1,4.1,5.1
	c1,0,2,1,3.1,1c1,0,2,0,3.1-1l433.2-174.1l65.5-26.6c4.1-2,6.1-7.2,5.1-11.3L716.8,431.1z M752.6,710.7l-3.1-8.2
	c-2-4.1-7.2-6.1-11.3-5.1c-4.1,2-6.1,7.2-5.1,11.3l4.1,8.2L387.1,857.1l-3.1-7.2c-2-4.1-7.2-6.1-11.3-5.1c-4.1,2-6.1,7.2-5.1,11.3
	l3.1,8.2l-52.2,20.5L220.2,640l52.2-20.5l3.1,8.2c1,3.1,4.1,5.1,8.2,5.1c1,0,2,0,3.1-1c4.1-2,6.1-7.2,5.1-11.3l-3.1-8.2L638,472.1
	l3.1,8.2c1,3.1,4.1,5.1,8.2,5.1c1,0,2,0,3.1-1c4.1-2,6.1-7.2,5.1-11.3l-3.1-8.2l50.2-20.5l98.3,244.7L752.6,710.7L752.6,710.7z"/>
<path d="M313.3,672.8c-2-4.1-7.2-6.1-11.3-5.1c-4.1,1-6.1,7.2-5.1,11.3l14.3,34.8c1,3.1,4.1,5.1,8.2,5.1c1,0,2,0,3.1-1
	c4.1-2,6.1-7.2,5.1-11.3L313.3,672.8L313.3,672.8z M349.2,760.8c-2-4.1-7.2-6.1-11.3-5.1c-4.1,2-6.1,7.2-5.1,11.3l14.3,34.8
	c1,3.1,4.1,5.1,8.2,5.1c1,0,2,0,3.1-1c4.1-2,6.1-7.2,5.1-11.3L349.2,760.8z M678.9,526.3c-2-4.1-7.2-6.1-11.3-5.1
	c-4.1,2-6.1,7.2-5.1,11.3l14.3,34.8c1,3.1,4.1,5.1,8.2,5.1c1,0,2,0,3.1-1c4.1-2,6.1-7.2,5.1-11.3L678.9,526.3L678.9,526.3z
	 M698.4,621.6l14.3,34.8c1,3.1,4.1,5.1,8.2,5.1c1,0,2,0,3.1-1c4.1-2,6.1-7.2,5.1-11.3l-15.4-34.8c-2-4.1-7.2-6.1-11.3-5.1
	C698.4,611.3,696.3,616.4,698.4,621.6z M498.7,273.4l31.7,13.3c1,0,2,1,3.1,1c3.1,0,6.1-2,8.2-5.1c2-4.1,0-9.2-4.1-11.3L505.9,258
	c-4.1-2-9.2,0-11.3,4.1C491.5,266.2,493.6,271.4,498.7,273.4z M418.8,239.6l31.7,13.3c1,0,2,1,3.1,1c3.1,0,6.1-2,8.2-5.1
	c2-4.1,0-9.2-4.1-11.3L426,224.3c-4.1-2-9.2,0-11.3,4.1C412.7,232.4,414.7,237.6,418.8,239.6z"/>
</svg>
